<svg width="154" height="40" viewBox="0 0 154 40" fill="none" xmlns="http://www.w3.org/2000/svg">
<rect x="0.5" y="0.5" width="153" height="39" rx="19.5" stroke="#6A6A6A"/>
<path d="M62.2812 14.6953H64.5156C65.1875 14.6953 65.8047 14.8073 66.3672 15.0312C66.9349 15.2552 67.4297 15.5729 67.8516 15.9844C68.2734 16.3906 68.6016 16.8802 68.8359 17.4531C69.0703 18.0208 69.1875 18.6536 69.1875 19.3516C69.1875 20.0391 69.0703 20.6667 68.8359 21.2344C68.6016 21.8021 68.2734 22.2917 67.8516 22.7031C67.4297 23.1094 66.9349 23.4219 66.3672 23.6406C65.8047 23.8594 65.1875 23.9688 64.5156 23.9688H62.2812C61.6146 23.9688 60.9974 23.8594 60.4297 23.6406C59.862 23.4219 59.3646 23.1094 58.9375 22.7031C58.5156 22.2969 58.1875 21.8125 57.9531 21.25C57.724 20.6823 57.6094 20.0547 57.6094 19.3672C57.6094 18.6693 57.724 18.0365 57.9531 17.4688C58.1875 16.8958 58.5156 16.4036 58.9375 15.9922C59.3646 15.5755 59.862 15.2552 60.4297 15.0312C60.9974 14.8073 61.6146 14.6953 62.2812 14.6953ZM62.2812 16.2578C61.6979 16.2578 61.1953 16.3828 60.7734 16.6328C60.3516 16.8776 60.026 17.2318 59.7969 17.6953C59.5729 18.1589 59.4609 18.7161 59.4609 19.3672C59.4609 19.8464 59.526 20.2734 59.6562 20.6484C59.7865 21.0234 59.974 21.3411 60.2188 21.6016C60.4635 21.862 60.7604 22.0625 61.1094 22.2031C61.4583 22.3438 61.849 22.4141 62.2812 22.4141H64.5312C65.1094 22.4141 65.6068 22.2917 66.0234 22.0469C66.4401 21.7969 66.7604 21.4427 66.9844 20.9844C67.2135 20.526 67.3281 19.9818 67.3281 19.3516C67.3281 18.8672 67.263 18.4349 67.1328 18.0547C67.0078 17.6693 66.8229 17.3438 66.5781 17.0781C66.3385 16.8125 66.0469 16.6094 65.7031 16.4688C65.3594 16.3281 64.9688 16.2578 64.5312 16.2578H62.2812ZM64.3438 13.1562V25.4688H62.4609V13.1562H64.3438ZM72.6641 22.25L75.9844 16.5469H77.8672V25H75.9844V19.2891L72.6641 25H70.7812V16.5469H72.6641V22.25ZM85.5391 16.5469V18.0469H81.4141V16.5469H85.5391ZM87.0156 16.5469V25H85.1328V16.5469H87.0156ZM80.9531 16.5469H82.8125L82.5859 20.7266C82.5547 21.3464 82.4922 21.8932 82.3984 22.3672C82.3099 22.8359 82.1901 23.2396 82.0391 23.5781C81.888 23.9115 81.7031 24.1823 81.4844 24.3906C81.2656 24.599 81.0104 24.7526 80.7188 24.8516C80.4271 24.9505 80.099 25 79.7344 25H79.1484L79.1406 23.4531L79.4375 23.4297C79.6302 23.4141 79.7969 23.3646 79.9375 23.2812C80.0781 23.1927 80.1979 23.0677 80.2969 22.9062C80.401 22.7448 80.4844 22.5365 80.5469 22.2812C80.6146 22.026 80.6667 21.724 80.7031 21.375C80.7448 21.026 80.776 20.6198 80.7969 20.1562L80.9531 16.5469ZM90.4141 19.2344H92.9062C93.6354 19.2344 94.2552 19.3568 94.7656 19.6016C95.276 19.8464 95.6641 20.1875 95.9297 20.625C96.2005 21.0573 96.3359 21.5521 96.3359 22.1094C96.3359 22.5208 96.2604 22.9036 96.1094 23.2578C95.9583 23.6068 95.7344 23.9115 95.4375 24.1719C95.1458 24.4323 94.7865 24.6354 94.3594 24.7812C93.9375 24.9271 93.4531 25 92.9062 25H89.1641V16.5469H91.0547V23.5078H92.9062C93.2812 23.5078 93.5807 23.4427 93.8047 23.3125C94.0286 23.1823 94.1901 23.013 94.2891 22.8047C94.3932 22.5964 94.4453 22.375 94.4453 22.1406C94.4453 21.901 94.3932 21.6745 94.2891 21.4609C94.1901 21.2474 94.0286 21.0729 93.8047 20.9375C93.5807 20.8021 93.2812 20.7344 92.9062 20.7344H90.4141V19.2344ZM100.984 16.5469V25H99.0938V16.5469H100.984ZM103.758 16.5469V18.0312H96.3672V16.5469H103.758ZM106.906 18.1719V28.25H105.023V16.5469H106.758L106.906 18.1719ZM112.414 20.6953V20.8594C112.414 21.474 112.341 22.0443 112.195 22.5703C112.055 23.0911 111.844 23.5469 111.562 23.9375C111.286 24.3229 110.945 24.6224 110.539 24.8359C110.133 25.0495 109.664 25.1562 109.133 25.1562C108.607 25.1562 108.146 25.0599 107.75 24.8672C107.359 24.6693 107.029 24.3906 106.758 24.0312C106.487 23.6719 106.268 23.25 106.102 22.7656C105.94 22.276 105.826 21.7396 105.758 21.1562V20.5234C105.826 19.9036 105.94 19.3411 106.102 18.8359C106.268 18.3307 106.487 17.8958 106.758 17.5312C107.029 17.1667 107.359 16.8854 107.75 16.6875C108.141 16.4896 108.596 16.3906 109.117 16.3906C109.648 16.3906 110.12 16.4948 110.531 16.7031C110.943 16.9062 111.289 17.1979 111.57 17.5781C111.852 17.9531 112.062 18.4062 112.203 18.9375C112.344 19.4635 112.414 20.0495 112.414 20.6953ZM110.531 20.8594V20.6953C110.531 20.3047 110.495 19.9427 110.422 19.6094C110.349 19.2708 110.234 18.974 110.078 18.7188C109.922 18.4635 109.721 18.2656 109.477 18.125C109.237 17.9792 108.948 17.9062 108.609 17.9062C108.276 17.9062 107.99 17.9635 107.75 18.0781C107.51 18.1875 107.31 18.3411 107.148 18.5391C106.987 18.737 106.862 18.9688 106.773 19.2344C106.685 19.4948 106.622 19.7786 106.586 20.0859V21.6016C106.648 21.9766 106.755 22.3203 106.906 22.6328C107.057 22.9453 107.271 23.1953 107.547 23.3828C107.828 23.5651 108.188 23.6562 108.625 23.6562C108.964 23.6562 109.253 23.5833 109.492 23.4375C109.732 23.2917 109.927 23.0911 110.078 22.8359C110.234 22.5755 110.349 22.276 110.422 21.9375C110.495 21.599 110.531 21.2396 110.531 20.8594ZM115.414 19.2344H117.906C118.635 19.2344 119.255 19.3568 119.766 19.6016C120.276 19.8464 120.664 20.1875 120.93 20.625C121.201 21.0573 121.336 21.5521 121.336 22.1094C121.336 22.5208 121.26 22.9036 121.109 23.2578C120.958 23.6068 120.734 23.9115 120.438 24.1719C120.146 24.4323 119.786 24.6354 119.359 24.7812C118.938 24.9271 118.453 25 117.906 25H114.164V16.5469H116.055V23.5078H117.906C118.281 23.5078 118.581 23.4427 118.805 23.3125C119.029 23.1823 119.19 23.013 119.289 22.8047C119.393 22.5964 119.445 22.375 119.445 22.1406C119.445 21.901 119.393 21.6745 119.289 21.4609C119.19 21.2474 119.029 21.0729 118.805 20.9375C118.581 20.8021 118.281 20.7344 117.906 20.7344H115.414V19.2344ZM124.664 16.5469V25H122.781V16.5469H124.664Z" fill="#1C1C1C"/>
<path d="M49.1666 14.958H43.6666" stroke="#1C1C1C" stroke-miterlimit="10" stroke-linecap="round" stroke-linejoin="round"/>
<path d="M34.5 14.958H30.8334" stroke="#1C1C1C" stroke-miterlimit="10" stroke-linecap="round" stroke-linejoin="round"/>
<path d="M38.1667 18.1667C39.9386 18.1667 41.375 16.7302 41.375 14.9583C41.375 13.1864 39.9386 11.75 38.1667 11.75C36.3948 11.75 34.9584 13.1864 34.9584 14.9583C34.9584 16.7302 36.3948 18.1667 38.1667 18.1667Z" stroke="#1C1C1C" stroke-miterlimit="10" stroke-linecap="round" stroke-linejoin="round"/>
<path d="M49.1667 25.042H45.5" stroke="#1C1C1C" stroke-miterlimit="10" stroke-linecap="round" stroke-linejoin="round"/>
<path d="M36.3334 25.042H30.8334" stroke="#1C1C1C" stroke-miterlimit="10" stroke-linecap="round" stroke-linejoin="round"/>
<path d="M41.8333 28.2497C43.6052 28.2497 45.0417 26.8133 45.0417 25.0413C45.0417 23.2694 43.6052 21.833 41.8333 21.833C40.0614 21.833 38.625 23.2694 38.625 25.0413C38.625 26.8133 40.0614 28.2497 41.8333 28.2497Z" stroke="#1C1C1C" stroke-miterlimit="10" stroke-linecap="round" stroke-linejoin="round"/>
</svg>
