<svg width="18" height="18" viewBox="0 0 18 18" fill="none" xmlns="http://www.w3.org/2000/svg">
<path d="M6.24996 16.2337C6.18962 16.2337 6.13032 16.2179 6.07796 16.1879C6.0256 16.1579 5.98198 16.1148 5.95143 16.0628C4.65755 13.8584 1.20968 9.16699 1.175 9.11984C1.12573 9.05288 1.10221 8.97043 1.10873 8.88756C1.11525 8.80468 1.15138 8.72693 1.21051 8.66849L2.27036 7.62121C2.32794 7.56431 2.40365 7.52939 2.4843 7.52252C2.56496 7.51565 2.64548 7.53727 2.71185 7.58361L6.17778 10.0038C8.48206 7.04361 10.6234 5.00072 12.0309 3.797C13.6085 2.44759 14.6115 1.84123 14.6534 1.81596C14.7072 1.78367 14.7688 1.7666 14.8316 1.7666H16.5461C16.6163 1.76659 16.6848 1.78791 16.7426 1.82773C16.8004 1.86756 16.8447 1.924 16.8697 1.98959C16.8947 2.05517 16.8991 2.1268 16.8824 2.19497C16.8658 2.26314 16.8288 2.32463 16.7764 2.3713C14.2345 4.63514 11.5918 8.23213 9.82254 10.8509C7.89921 13.6975 6.56402 16.0355 6.55077 16.0588C6.52071 16.1116 6.4773 16.1555 6.42491 16.1862C6.37251 16.2169 6.31296 16.2333 6.25224 16.2337L6.24996 16.2337Z" fill="#463998"/>
</svg>
