<svg width="74" height="22" viewBox="0 0 74 22" fill="none" xmlns="http://www.w3.org/2000/svg">
<path d="M32.4375 5.625V17H31.4766V5.625H32.4375ZM39.5625 5.625L34.5156 11.6641H32.0547L31.9688 10.8359H33.9531L38.3594 5.625H39.5625ZM38.7109 17L33.9062 11.5547L34.4609 10.7109L39.9062 17H38.7109ZM46.5859 15.4844V11.125C46.5859 10.724 46.5026 10.3776 46.3359 10.0859C46.1693 9.79427 45.9245 9.57031 45.6016 9.41406C45.2786 9.25781 44.8802 9.17969 44.4062 9.17969C43.9688 9.17969 43.5781 9.25781 43.2344 9.41406C42.8958 9.5651 42.6276 9.77083 42.4297 10.0312C42.237 10.2865 42.1406 10.5703 42.1406 10.8828L41.2031 10.875C41.2031 10.5573 41.2812 10.25 41.4375 9.95312C41.5938 9.65625 41.8151 9.39062 42.1016 9.15625C42.388 8.92188 42.7292 8.73698 43.125 8.60156C43.526 8.46094 43.9661 8.39062 44.4453 8.39062C45.0495 8.39062 45.5807 8.49219 46.0391 8.69531C46.5026 8.89844 46.8646 9.20312 47.125 9.60938C47.3854 10.0156 47.5156 10.526 47.5156 11.1406V15.2266C47.5156 15.5182 47.5365 15.8203 47.5781 16.1328C47.625 16.4453 47.6901 16.7031 47.7734 16.9062V17H46.7812C46.7188 16.8125 46.6693 16.5781 46.6328 16.2969C46.6016 16.0104 46.5859 15.7396 46.5859 15.4844ZM46.8047 12.0781L46.8203 12.7969H44.9844C44.5052 12.7969 44.0755 12.8411 43.6953 12.9297C43.3203 13.013 43.0026 13.138 42.7422 13.3047C42.4818 13.4661 42.2812 13.6615 42.1406 13.8906C42.0052 14.1198 41.9375 14.3802 41.9375 14.6719C41.9375 14.974 42.013 15.25 42.1641 15.5C42.3203 15.75 42.5391 15.9505 42.8203 16.1016C43.1068 16.2474 43.4453 16.3203 43.8359 16.3203C44.3568 16.3203 44.8151 16.224 45.2109 16.0312C45.612 15.8385 45.9427 15.5859 46.2031 15.2734C46.4635 14.9609 46.638 14.6198 46.7266 14.25L47.1328 14.7891C47.0651 15.0495 46.9401 15.3177 46.7578 15.5938C46.5807 15.8646 46.349 16.1198 46.0625 16.3594C45.776 16.5938 45.4375 16.7865 45.0469 16.9375C44.6615 17.0833 44.224 17.1562 43.7344 17.1562C43.1823 17.1562 42.7005 17.0521 42.2891 16.8438C41.8828 16.6354 41.5651 16.3516 41.3359 15.9922C41.112 15.6276 41 15.2161 41 14.7578C41 14.3411 41.0885 13.9688 41.2656 13.6406C41.4427 13.3073 41.6979 13.026 42.0312 12.7969C42.3698 12.5625 42.776 12.3854 43.25 12.2656C43.7292 12.1406 44.2656 12.0781 44.8594 12.0781H46.8047ZM50.9453 10.1719V20.25H50.0078V8.54688H50.8828L50.9453 10.1719ZM56.8203 12.6953V12.8594C56.8203 13.4896 56.7474 14.0677 56.6016 14.5938C56.4557 15.1198 56.2448 15.5755 55.9688 15.9609C55.6979 16.3411 55.362 16.6354 54.9609 16.8438C54.5599 17.0521 54.1042 17.1562 53.5938 17.1562C53.0885 17.1562 52.638 17.0781 52.2422 16.9219C51.8464 16.7656 51.5052 16.5443 51.2188 16.2578C50.9375 15.9661 50.7109 15.6276 50.5391 15.2422C50.3724 14.8516 50.2552 14.4245 50.1875 13.9609V11.7969C50.2656 11.2865 50.3932 10.8229 50.5703 10.4062C50.7474 9.98958 50.974 9.63021 51.25 9.32812C51.5312 9.02604 51.8646 8.79427 52.25 8.63281C52.6354 8.47135 53.0755 8.39062 53.5703 8.39062C54.0859 8.39062 54.5443 8.49219 54.9453 8.69531C55.3516 8.89323 55.6927 9.18229 55.9688 9.5625C56.25 9.9375 56.4609 10.3906 56.6016 10.9219C56.7474 11.4479 56.8203 12.0391 56.8203 12.6953ZM55.8828 12.8594V12.6953C55.8828 12.2005 55.8307 11.7422 55.7266 11.3203C55.6276 10.8984 55.474 10.5312 55.2656 10.2188C55.0625 9.90104 54.8021 9.65365 54.4844 9.47656C54.1719 9.29948 53.7995 9.21094 53.3672 9.21094C52.9193 9.21094 52.5365 9.28646 52.2188 9.4375C51.9062 9.58333 51.6458 9.77865 51.4375 10.0234C51.2292 10.263 51.0651 10.526 50.9453 10.8125C50.8255 11.099 50.737 11.3802 50.6797 11.6562V14.1484C50.7786 14.5443 50.9375 14.9115 51.1562 15.25C51.375 15.5833 51.6667 15.8516 52.0312 16.0547C52.401 16.2526 52.8516 16.3516 53.3828 16.3516C53.8099 16.3516 54.1797 16.263 54.4922 16.0859C54.8047 15.9089 55.0625 15.6615 55.2656 15.3438C55.474 15.026 55.6276 14.6562 55.7266 14.2344C55.8307 13.8125 55.8828 13.3542 55.8828 12.8594ZM61.2578 8.54688V17H60.3281V8.54688H61.2578ZM64.3359 8.54688V9.34375H57.3594V8.54688H64.3359ZM70.8984 15.4844V11.125C70.8984 10.724 70.8151 10.3776 70.6484 10.0859C70.4818 9.79427 70.237 9.57031 69.9141 9.41406C69.5911 9.25781 69.1927 9.17969 68.7188 9.17969C68.2812 9.17969 67.8906 9.25781 67.5469 9.41406C67.2083 9.5651 66.9401 9.77083 66.7422 10.0312C66.5495 10.2865 66.4531 10.5703 66.4531 10.8828L65.5156 10.875C65.5156 10.5573 65.5938 10.25 65.75 9.95312C65.9062 9.65625 66.1276 9.39062 66.4141 9.15625C66.7005 8.92188 67.0417 8.73698 67.4375 8.60156C67.8385 8.46094 68.2786 8.39062 68.7578 8.39062C69.362 8.39062 69.8932 8.49219 70.3516 8.69531C70.8151 8.89844 71.1771 9.20312 71.4375 9.60938C71.6979 10.0156 71.8281 10.526 71.8281 11.1406V15.2266C71.8281 15.5182 71.849 15.8203 71.8906 16.1328C71.9375 16.4453 72.0026 16.7031 72.0859 16.9062V17H71.0938C71.0312 16.8125 70.9818 16.5781 70.9453 16.2969C70.9141 16.0104 70.8984 15.7396 70.8984 15.4844ZM71.1172 12.0781L71.1328 12.7969H69.2969C68.8177 12.7969 68.388 12.8411 68.0078 12.9297C67.6328 13.013 67.3151 13.138 67.0547 13.3047C66.7943 13.4661 66.5938 13.6615 66.4531 13.8906C66.3177 14.1198 66.25 14.3802 66.25 14.6719C66.25 14.974 66.3255 15.25 66.4766 15.5C66.6328 15.75 66.8516 15.9505 67.1328 16.1016C67.4193 16.2474 67.7578 16.3203 68.1484 16.3203C68.6693 16.3203 69.1276 16.224 69.5234 16.0312C69.9245 15.8385 70.2552 15.5859 70.5156 15.2734C70.776 14.9609 70.9505 14.6198 71.0391 14.25L71.4453 14.7891C71.3776 15.0495 71.2526 15.3177 71.0703 15.5938C70.8932 15.8646 70.6615 16.1198 70.375 16.3594C70.0885 16.5938 69.75 16.7865 69.3594 16.9375C68.974 17.0833 68.5365 17.1562 68.0469 17.1562C67.4948 17.1562 67.013 17.0521 66.6016 16.8438C66.1953 16.6354 65.8776 16.3516 65.6484 15.9922C65.4245 15.6276 65.3125 15.2161 65.3125 14.7578C65.3125 14.3411 65.401 13.9688 65.5781 13.6406C65.7552 13.3073 66.0104 13.026 66.3438 12.7969C66.6823 12.5625 67.0885 12.3854 67.5625 12.2656C68.0417 12.1406 68.5781 12.0781 69.1719 12.0781H71.1172Z" fill="#1C1C1C"/>
<path d="M20.1667 10.9997C20.1667 5.93967 16.06 1.83301 11 1.83301C5.94004 1.83301 1.83337 5.93967 1.83337 10.9997C1.83337 16.0597 5.94004 20.1663 11 20.1663" stroke="#1C1C1C" stroke-linecap="round" stroke-linejoin="round"/>
<path d="M7.33338 2.75H8.25005C6.46255 8.10333 6.46255 13.8967 8.25005 19.25H7.33338" stroke="#1C1C1C" stroke-linecap="round" stroke-linejoin="round"/>
<path d="M13.75 2.75C14.6392 5.42667 15.0883 8.21333 15.0883 11" stroke="#1C1C1C" stroke-linecap="round" stroke-linejoin="round"/>
<path d="M2.75 14.6667V13.75C5.42667 14.6392 8.21333 15.0884 11 15.0884" stroke="#1C1C1C" stroke-linecap="round" stroke-linejoin="round"/>
<path d="M2.75 8.2498C8.10333 6.4623 13.8967 6.4623 19.25 8.2498" stroke="#1C1C1C" stroke-linecap="round" stroke-linejoin="round"/>
<path d="M16.6833 19.6167C18.3034 19.6167 19.6167 18.3034 19.6167 16.6833C19.6167 15.0633 18.3034 13.75 16.6833 13.75C15.0633 13.75 13.75 15.0633 13.75 16.6833C13.75 18.3034 15.0633 19.6167 16.6833 19.6167Z" stroke="#1C1C1C" stroke-linecap="round" stroke-linejoin="round"/>
<path d="M20.1667 20.1667L19.25 19.25" stroke="#1C1C1C" stroke-linecap="round" stroke-linejoin="round"/>
</svg>
