<svg width="290" height="93" viewBox="0 0 290 93" fill="none" xmlns="http://www.w3.org/2000/svg">
<path d="M101.062 50.3105C101.503 50.0228 101.951 50.0228 102.408 50.3105C102.882 50.5983 103.128 50.9538 103.145 51.377C103.178 51.8001 103.077 52.1217 102.84 52.3418C97.8294 56.8105 92.0742 61.584 85.5742 66.6621C79.0742 71.7233 72.2357 76.082 65.0586 79.7383C57.8815 83.3945 50.7637 85.3411 43.7051 85.5781C38.1699 85.5781 34.099 84.4271 31.4922 82.125C28.8854 79.8229 27.252 76.8014 26.5918 73.0605C25.9316 69.3027 25.7539 65.2318 26.0586 60.8477C24.0612 63.2174 22.0892 65.5534 20.1426 67.8555C14.7936 76.0143 9.3431 84.0885 3.79102 92.0781C3.36784 92.6198 2.88542 92.8652 2.34375 92.8145C1.78516 92.7806 1.35352 92.5352 1.04883 92.0781C0.744141 91.638 0.727214 91.0879 0.998047 90.4277C8.03971 75.8874 16.5456 61.5332 26.5156 47.3652C36.4857 33.1973 46.9128 20.1211 57.7969 8.13672C58.457 7.45964 59.151 7.22266 59.8789 7.42578C60.6237 7.62891 61.1823 8.08594 61.5547 8.79688C61.944 9.49089 61.944 10.2357 61.5547 11.0312C60.0143 14.0273 58.3893 16.9727 56.6797 19.8672C56.2904 20.5104 55.7995 20.8828 55.207 20.9844C54.6146 21.069 54.056 20.9505 53.5312 20.6289C45.3893 30.8698 37.696 41.4577 30.4512 52.3926C34.7337 47.3991 39.4818 42.1094 44.6953 36.5234C49.9258 30.9375 55.2832 25.6139 60.7676 20.5527C66.252 15.4915 71.5247 11.2513 76.5859 7.83203C81.6641 4.41276 86.3021 2.30534 90.5 1.50977C94.6979 0.714193 97.8125 1.71289 99.8438 4.50586C101.266 7.31576 101.088 10.4896 99.3105 14.0273C97.5501 17.5651 95.3327 20.8659 92.6582 23.9297C89.9837 26.9766 87.8171 29.2109 86.1582 30.6328C78.5072 37.4375 70.0859 43.4128 60.8945 48.5586C51.7031 53.7044 41.987 56.929 31.7461 58.2324C31.6615 58.2493 31.5853 58.2493 31.5176 58.2324C31.4837 58.2155 31.4414 58.207 31.3906 58.207C31.3398 59.2057 31.2721 60.2721 31.1875 61.4062C30.849 64.5885 30.9167 68.0671 31.3906 71.8418C31.8646 75.5996 33.7604 78.401 37.0781 80.2461C40.4128 82.0911 45.6602 82.2096 52.8203 80.6016C64.1615 77.724 80.2422 67.627 101.062 50.3105ZM88.418 7.07031C80.8854 10.1172 73.9961 14.3066 67.75 19.6387C61.5039 24.9538 55.5456 30.472 49.875 36.1934C44.2214 41.8978 39.3125 47.416 35.1484 52.748C40.8021 52.0033 46.972 50.0397 53.6582 46.8574C60.3444 43.6751 67.3353 39.2064 74.6309 33.4512C77.4577 31.3861 80.2168 29.2025 82.9082 26.9004C85.6165 24.5814 88.0117 21.9915 90.0938 19.1309C90.2292 18.9277 90.6439 18.2507 91.3379 17.0996C92.0319 15.9486 92.7259 14.6198 93.4199 13.1133C94.1309 11.5898 94.5625 10.1934 94.7148 8.92383C94.8841 7.63737 94.5117 6.76562 93.5977 6.30859C92.6836 5.85156 90.957 6.10547 88.418 7.07031ZM131.684 52.5703C126.487 57.5638 120.808 61.9225 114.646 65.6465C112.649 66.8822 110.372 67.9909 107.816 68.9727C105.277 69.9375 102.814 70.1576 100.428 69.6328C98.3965 69.0404 96.9238 67.9993 96.0098 66.5098C95.0788 65.0202 94.6387 63.3444 94.6895 61.4824C94.7402 59.6035 95.2057 57.7923 96.0859 56.0488C96.5938 55.1009 97.4316 54.0007 98.5996 52.748C99.7676 51.4954 101.088 50.4121 102.561 49.498C104.05 48.5671 105.599 48.0339 107.207 47.8984C108.832 47.7461 110.118 48.3639 111.066 49.752C112.099 51.4785 111.997 53.4251 110.762 55.5918C109.543 57.7585 107.901 59.5189 105.836 60.873C103.788 62.2272 101.74 63.1751 99.6914 63.7168C100.402 64.9863 101.773 65.4688 103.805 65.1641C105.836 64.8424 108.189 64.0384 110.863 62.752C113.538 61.4486 116.212 59.9759 118.887 58.334C121.561 56.6751 123.897 55.1432 125.895 53.7383C127.909 52.3333 129.255 51.36 129.932 50.8184C130.355 50.5306 130.77 50.4629 131.176 50.6152C131.599 50.7676 131.878 51.0384 132.014 51.4277C132.166 51.8001 132.056 52.181 131.684 52.5703ZM103.982 54.0684C102.374 55.1178 101.088 56.5736 100.123 58.4355C101.206 58.0632 102.366 57.3691 103.602 56.3535C104.854 55.321 105.59 54.5423 105.811 54.0176C106.048 53.4928 105.988 53.2559 105.633 53.3066C105.277 53.3405 104.727 53.5944 103.982 54.0684ZM162.812 51.7324C163.253 51.4785 163.684 51.4023 164.107 51.5039C164.548 51.5885 164.878 51.7917 165.098 52.1133C165.335 52.4349 165.377 52.8073 165.225 53.2305C164.294 55.0586 162.567 56.4551 160.045 57.4199C157.523 58.3848 154.84 59.0195 151.996 59.3242C149.152 59.612 146.783 59.6458 144.887 59.4258C144.311 59.3581 143.795 59.2904 143.338 59.2227C141.984 58.9518 140.934 58.9434 140.189 59.1973C139.462 59.4512 138.564 60.3229 137.498 61.8125C137.21 62.2188 136.914 62.6335 136.609 63.0566C135.035 65.3587 133.283 67.4915 131.354 69.4551C130.541 70.2507 129.449 71.0632 128.078 71.8926C126.707 72.722 125.37 73.1198 124.066 73.0859C122.763 73.0521 121.807 72.1634 121.197 70.4199C120.622 68.4056 120.639 66.3828 121.248 64.3516C121.84 62.3203 122.755 60.3314 123.99 58.3848C125.226 56.4212 126.504 54.5508 127.824 52.7734C128.908 51.3008 129.855 49.9212 130.668 48.6348C131.294 47.7546 132.039 47.3568 132.902 47.4414C133.783 47.526 134.477 47.9323 134.984 48.6602C135.492 49.3711 135.509 50.209 135.035 51.1738C134.155 52.6973 133.232 54.1953 132.268 55.668C130.88 57.75 129.602 59.9082 128.434 62.1426C128.095 62.8197 127.782 63.5221 127.494 64.25C127.206 64.9609 127.029 65.5534 126.961 66.0273C126.876 66.4844 126.986 66.6706 127.291 66.5859C127.596 66.4844 128.163 65.9596 128.992 65.0117C130.076 63.7422 131.108 62.3965 132.09 60.9746C133.41 59.0111 134.866 57.2168 136.457 55.5918C137.659 54.5085 138.903 53.9668 140.189 53.9668C141.476 53.9668 142.813 54.153 144.201 54.5254C145.335 54.8301 146.495 55.0417 147.68 55.1602C151.082 55.4141 153.867 55.2871 156.033 54.7793C158.2 54.2715 160.46 53.2559 162.812 51.7324ZM157.785 70.9023C156.076 70.293 155.043 69.0404 154.688 67.1445C154.332 65.2487 154.755 63.1413 155.957 60.8223C157.159 58.5033 158.606 56.3281 160.299 54.2969C161.992 52.2656 163.405 50.7168 164.539 49.6504C165.385 48.9225 166.223 48.7194 167.053 49.041C167.899 49.3457 168.483 49.9212 168.805 50.7676C169.126 51.6139 168.932 52.4688 168.221 53.332C167.713 53.8737 167.171 54.4408 166.596 55.0332C165.309 56.3027 164.082 57.6738 162.914 59.1465C161.763 60.6191 161.001 62.1764 160.629 63.8184C160.409 65.2741 160.883 66.0273 162.051 66.0781C163.236 66.112 164.691 65.7819 166.418 65.0879C168.161 64.3939 171.191 62.5827 175.508 59.6543C179.824 56.7259 184.073 53.7467 188.254 50.7168C188.812 50.4798 189.295 50.5221 189.701 50.8438C190.107 51.1484 190.294 51.5547 190.26 52.0625C190.243 52.5703 190.074 52.9427 189.752 53.1797C186.536 55.3464 183.447 57.64 180.484 60.0605C178.352 61.7871 176.168 63.4629 173.934 65.0879C173.866 65.1387 173.79 65.1979 173.705 65.2656C169.761 68.1263 166.545 69.9375 164.057 70.6992C161.585 71.444 159.495 71.5117 157.785 70.9023ZM170.404 46.4258C169.829 46.0365 169.456 45.554 169.287 44.9785C169.033 44.4199 168.982 43.8783 169.135 43.3535C169.524 42.2702 170.21 41.4154 171.191 40.7891C172.173 40.1458 173.231 40.0697 174.365 40.5605C175.296 41.1022 175.846 41.9316 176.016 43.0488C176.185 44.166 175.863 45.1055 175.051 45.8672C174.391 46.4258 173.646 46.7812 172.816 46.9336C171.987 47.069 171.183 46.8997 170.404 46.4258ZM218.164 52.5703C212.967 57.5638 207.288 61.9225 201.127 65.6465C199.13 66.8822 196.853 67.9909 194.297 68.9727C191.758 69.9375 189.295 70.1576 186.908 69.6328C184.877 69.0404 183.404 67.9993 182.49 66.5098C181.559 65.0202 181.119 63.3444 181.17 61.4824C181.221 59.6035 181.686 57.7923 182.566 56.0488C183.074 55.1009 183.912 54.0007 185.08 52.748C186.248 51.4954 187.568 50.4121 189.041 49.498C190.531 48.5671 192.079 48.0339 193.688 47.8984C195.312 47.7461 196.599 48.3639 197.547 49.752C198.579 51.4785 198.478 53.4251 197.242 55.5918C196.023 57.7585 194.382 59.5189 192.316 60.873C190.268 62.2272 188.22 63.1751 186.172 63.7168C186.883 64.9863 188.254 65.4688 190.285 65.1641C192.316 64.8424 194.669 64.0384 197.344 62.752C200.018 61.4486 202.693 59.9759 205.367 58.334C208.042 56.6751 210.378 55.1432 212.375 53.7383C214.389 52.3333 215.735 51.36 216.412 50.8184C216.835 50.5306 217.25 50.4629 217.656 50.6152C218.079 50.7676 218.359 51.0384 218.494 51.4277C218.646 51.8001 218.536 52.181 218.164 52.5703ZM190.463 54.0684C188.855 55.1178 187.568 56.5736 186.604 58.4355C187.687 58.0632 188.846 57.3691 190.082 56.3535C191.335 55.321 192.071 54.5423 192.291 54.0176C192.528 53.4928 192.469 53.2559 192.113 53.3066C191.758 53.3405 191.208 53.5944 190.463 54.0684ZM254.727 53.9668C253.491 55.3887 251.79 56.7005 249.623 57.9023C247.456 59.1042 245.451 59.7051 243.605 59.7051C243.521 59.7051 243.445 59.7051 243.377 59.7051C242.158 59.7051 241.261 59.722 240.686 59.7559C240.127 59.7897 239.729 59.8913 239.492 60.0605C239.255 60.2129 239.018 60.4414 238.781 60.7461C238.544 61.0508 237.706 61.9395 236.268 63.4121C233.762 65.5111 231.511 66.2051 229.514 65.4941C227.516 64.7663 226.382 62.7266 226.111 59.375C225.265 60.6953 223.158 62.7858 219.789 65.6465C216.421 68.5072 213.712 70.3099 211.664 71.0547C209.616 71.7995 207.932 71.4017 206.611 69.8613C205.291 68.321 205.156 66.1966 206.205 63.4883C207.255 60.7799 208.634 58.3932 210.344 56.3281C212.036 54.263 213.738 52.3926 215.447 50.7168C216.04 50.1074 216.59 49.5404 217.098 49.0156C217.572 48.5755 218.088 48.4316 218.646 48.584C219.205 48.7363 219.62 49.0579 219.891 49.5488C220.178 50.0228 220.136 50.5306 219.764 51.0723C219.154 51.9017 218.52 52.7227 217.859 53.5352C216.353 55.3464 214.982 57.2337 213.746 59.1973C210.564 64.7155 210.073 66.9583 212.273 65.9258C214.322 64.4193 216.319 62.752 218.266 60.9238C218.74 60.4837 219.23 60.0182 219.738 59.5273C222.802 56.6667 225.011 55.0671 226.365 54.7285C227.736 54.39 228.837 54.737 229.666 55.7695C230.089 56.4128 230.36 56.9544 230.479 57.3945C230.597 57.8346 230.682 58.4017 230.732 59.0957C230.732 59.1803 230.741 59.2734 230.758 59.375C230.876 60.2214 231.274 60.5938 231.951 60.4922C232.645 60.3906 234.372 59.0957 237.131 56.6074C237.74 56.0319 238.282 55.6849 238.756 55.5664C239.247 55.4479 239.687 55.4395 240.076 55.541C242.768 56.3366 244.951 56.4212 246.627 55.7949C248.32 55.1686 249.801 54.3392 251.07 53.3066C251.747 52.7988 252.433 52.3333 253.127 51.9102C253.601 51.6732 254.007 51.6562 254.346 51.8594C254.701 52.0625 254.921 52.3672 255.006 52.7734C255.107 53.1797 255.014 53.5775 254.727 53.9668ZM287.938 53.5352C282.961 55.2617 278.458 57.0814 274.43 58.9941C270.418 60.9069 266.22 63.3444 261.836 66.3066C262.632 67.5592 263.029 68.9811 263.029 70.5723C262.962 74.4486 261.277 77.5547 257.977 79.8906C256.961 80.6693 255.607 81.5495 253.914 82.5312C252.221 83.5299 250.444 84.3255 248.582 84.918C246.72 85.5273 245.044 85.6374 243.555 85.248C242.048 84.8757 240.99 83.7077 240.381 81.7441C239.958 79.8652 240.465 77.9863 241.904 76.1074C243.343 74.2285 245.129 72.4935 247.262 70.9023C249.378 69.2943 251.24 67.9824 252.848 66.9668C253.203 66.7298 253.516 66.5182 253.787 66.332C253.635 66.1628 253.491 65.9935 253.355 65.8242C252.391 64.6562 251.629 63.5221 251.07 62.4219C250.495 61.3047 250.089 60.0013 249.852 58.5117C249.547 55.651 250.351 53.222 252.264 51.2246C254.16 49.2103 256.368 47.8392 258.891 47.1113C259.957 46.8574 260.778 47.0267 261.354 47.6191C261.929 48.1947 262.2 48.9225 262.166 49.8027C262.132 50.6829 261.734 51.4362 260.973 52.0625C259.009 53.6029 257.79 54.9909 257.316 56.2266C256.859 57.4453 256.868 58.5964 257.342 59.6797C257.833 60.763 258.527 61.8379 259.424 62.9043C264.146 60.0944 268.641 57.75 272.906 55.8711C277.189 53.9922 281.92 52.1979 287.1 50.4883C287.76 50.319 288.259 50.4375 288.598 50.8438C288.953 51.25 289.089 51.7324 289.004 52.291C288.919 52.8496 288.564 53.2643 287.938 53.5352ZM255.031 76.3359C256.656 74.931 257.545 73.653 257.697 72.502C257.85 71.3509 257.604 70.3861 256.961 69.6074C254.845 71.0462 252.814 72.5781 250.867 74.2031C250.681 74.3555 250.503 74.5078 250.334 74.6602C249.166 75.5911 248.074 76.6068 247.059 77.707C244.807 80.4154 245.171 81.2109 248.15 80.0938C251.113 78.9935 253.406 77.7409 255.031 76.3359Z" fill="#D4D4D4"/>
</svg>
